<svg width="23" height="23" viewBox="0 0 23 23" fill="none" xmlns="http://www.w3.org/2000/svg">
  <path d="M12.0807 4.70468L12.1234 4.662H12.063H6.188C5.83481 4.662 5.54354 4.77545 5.31635 5.0033C5.08846 5.2305 4.975 5.52179 4.975 5.875V15.833C4.975 16.1862 5.08846 16.4775 5.31635 16.7047C5.54355 16.9319 5.83482 17.045 6.188 17.045H16.146C16.4992 17.045 16.7904 16.9319 17.0177 16.7047C17.2455 16.4775 17.359 16.1862 17.359 15.833V10V9.93836L17.3161 9.98259L16.6491 10.6696L16.642 10.6769V10.687V15.833C16.642 15.9646 16.5929 16.0801 16.4933 16.1804C16.3937 16.2799 16.2783 16.329 16.146 16.329H6.188C6.05572 16.329 5.94032 16.2799 5.84073 16.1804C5.74106 16.0801 5.692 15.9646 5.692 15.833V5.875C5.692 5.7427 5.74108 5.62728 5.84068 5.52768C5.94028 5.42808 6.0557 5.379 6.188 5.379H11.396H11.4064L11.4137 5.37168L12.0807 4.70468ZM15.3575 4.60719L15.3573 4.60736L15.3397 4.62469L15.3399 4.62485L9.98229 10.0024L9.975 10.0097V10.02V12.02V12.045H10H12.021H12.0314L12.0387 12.0377L17.3748 6.70153L17.3927 6.68368L17.3927 6.68368L17.4092 6.6672L18.8307 5.24668L18.8307 5.24668C19.0711 5.00623 19.192 4.72229 19.192 4.396C19.192 4.06906 19.0711 3.78479 18.8307 3.54432L18.8307 3.54432L18.8302 3.54382L18.4557 3.19032C18.4556 3.19023 18.4555 3.19015 18.4554 3.19006C18.2286 2.96334 17.9479 2.85 17.615 2.85C17.2822 2.85 17.0082 2.96334 16.7951 3.19054L15.3748 4.59013L15.3746 4.58997L15.3575 4.60719ZM15.8799 5.17601L16.8966 6.21351L11.7187 11.329H10.692V10.3014L15.8799 5.17601Z" fill="#8E8E93" stroke="#8E8E93" stroke-width="0.05"/>
</svg>
