<svg width="22" height="22" viewBox="0 0 22 22" fill="none" xmlns="http://www.w3.org/2000/svg">
  <path d="M6.4475 5.88258H5V4.9171H9.73332V3.5H12.2968V4.9171H17.062V5.88258H15.6145V15.9847C15.6145 16.4874 15.4485 16.8995 15.1166 17.2208C14.7846 17.5432 14.3774 17.7043 13.8949 17.7043H8.13528C7.65278 17.7043 7.25086 17.5432 6.92952 17.2208C6.60817 16.8995 6.4475 16.4874 6.4475 15.9847V5.88258ZM7.41153 5.88258V15.9847C7.41153 16.1864 7.4868 16.3625 7.63734 16.513C7.78885 16.6636 7.95483 16.7388 8.13528 16.7388H13.8949C14.0763 16.7388 14.2476 16.6636 14.4087 16.513C14.5689 16.3625 14.649 16.1864 14.649 15.9847V5.88258H7.41153ZM7.41153 5.88258V16V15.9847V5.88258Z" fill="#D34848"/>
</svg>
